<!--?xml version="1.0" encoding="utf-8"?-->
<!-- Generator: Adobe Illustrator 23.0.5, SVG Export Plug-In . SVG Version: 6.00 Build 0)  -->
 <svg version="1.1" id="Calque_1" xmlns="http://www.w3.org/2000/svg" xmlns:xlink="http://www.w3.org/1999/xlink" x="0px" y="0px" viewBox="0 0 350 500" style="" xml:space="preserve" width="350" height="500">
<style type="text/css">

	.svg-elem {
            fill: none;
            stroke: white;
            stroke-width: 9;
            stroke-miterlimit: 10;

        }
</style>
 
                <g>
                    <path class="svg-elem svg-elem-1 animate-svg-stroke-1 bXRPjEby_0" d="M19.5,144A127.5,127.5 0,1,1 274.5,144A127.5,127.5 0,1,1 19.5,144"></path>
                    <path class="svg-elem svg-elem-2 animate-svg-stroke-2 bXRPjEby_1" d="M115.8,274.5L116.1,327.5L63.1,274.5L116.1,221.5Z"></path>
                    <path class="svg-elem svg-elem-3 animate-svg-stroke-3 bXRPjEby_2" d="M148.6,20.2l172.9,134.3l-157,245L146.6,21.2C146.6,20.1,147.8,19.5,148.6,20.2z"></path>
                    <path class="svg-elem svg-elem-4 animate-svg-stroke-4 bXRPjEby_3" width="128" height="108" d="M170.5 174.5 L298.5 174.5 L298.5 282.5 L170.5 282.5 Z"></path>
                    <path class="svg-elem svg-elem-5 animate-svg-stroke-5 bXRPjEby_4" d="M154.7,191.5L42.5,346.5L192.5,459.5L176.5,174.5"></path>
                    <path class="svg-elem svg-elem-6 animate-svg-stroke-6 bXRPjEby_5" d="M298.5,244.6L248.5,212.5L298.5,219"></path>
                    <path class="svg-elem svg-elem-7 animate-svg-stroke-7 bXRPjEby_6" d="M238.7,111.9L212.5,121.3L249.5,134.1Z"></path>
                </g>
            <style data-made-with="vivus-instant">.bXRPjEby_0{stroke-dasharray:802 804;stroke-dashoffset:803;animation:bXRPjEby_draw 2000ms ease-in-out 0ms forwards;}.bXRPjEby_1{stroke-dasharray:256 258;stroke-dashoffset:257;animation:bXRPjEby_draw 2000ms ease-in-out 166ms forwards;}.bXRPjEby_2{stroke-dasharray:892 894;stroke-dashoffset:893;animation:bXRPjEby_draw 2000ms ease-in-out 333ms forwards;}.bXRPjEby_3{stroke-dasharray:472 474;stroke-dashoffset:473;animation:bXRPjEby_draw 2000ms ease-in-out 500ms forwards;}.bXRPjEby_4{stroke-dasharray:665 667;stroke-dashoffset:666;animation:bXRPjEby_draw 2000ms ease-in-out 666ms forwards;}.bXRPjEby_5{stroke-dasharray:110 112;stroke-dashoffset:111;animation:bXRPjEby_draw 2000ms ease-in-out 833ms forwards;}.bXRPjEby_6{stroke-dasharray:92 94;stroke-dashoffset:93;animation:bXRPjEby_draw 2000ms ease-in-out 1000ms forwards;}@keyframes bXRPjEby_draw{100%{stroke-dashoffset:0;}}@keyframes bXRPjEby_fade{0%{stroke-opacity:1;}88.31168831168831%{stroke-opacity:1;}100%{stroke-opacity:0;}}</style></svg>

